<?xml version="1.0" encoding="iso-8859-1"?>
<!-- Generator: Adobe Illustrator 19.0.0, SVG Export Plug-In . SVG Version: 6.00 Build 0)  -->
<svg version="1.1" id="Capa_1" xmlns="http://www.w3.org/2000/svg" xmlns:xlink="http://www.w3.org/1999/xlink" x="0px" y="0px"
	 viewBox="0 0 512 512" style="enable-background:new 0 0 512 512;" xml:space="preserve">
<g>
	<g>
		<g>
			<path d="M368,64V0H144v64H96v448h320V64H368z M176,32h160v32H176V32z M240,480h-32v-64h32V480z M304,480h-32v-64h32V480z
				 M384,480h-48v-96H176v96h-48V96h256V480z"/>
			<rect x="176" y="320" width="32" height="32"/>
			<rect x="240" y="320" width="32" height="32"/>
			<rect x="304" y="320" width="32" height="32"/>
			<rect x="176" y="256" width="32" height="32"/>
			<rect x="240" y="256" width="32" height="32"/>
			<rect x="304" y="256" width="32" height="32"/>
			<rect x="176" y="192" width="32" height="32"/>
			<rect x="240" y="192" width="32" height="32"/>
			<rect x="304" y="192" width="32" height="32"/>
			<rect x="176" y="128" width="32" height="32"/>
			<rect x="240" y="128" width="32" height="32"/>
			<rect x="304" y="128" width="32" height="32"/>
		</g>
	</g>
</g>
<g>
</g>
<g>
</g>
<g>
</g>
<g>
</g>
<g>
</g>
<g>
</g>
<g>
</g>
<g>
</g>
<g>
</g>
<g>
</g>
<g>
</g>
<g>
</g>
<g>
</g>
<g>
</g>
<g>
</g>
</svg>
