<svg xmlns="http://www.w3.org/2000/svg" viewBox="0 0 268.94 51.37"><defs><style>.cls-1{fill:#3d4545;}.cls-2{fill:#0074b8;}</style></defs><title>Asset 1</title><g id="Layer_2" data-name="Layer 2"><g id="Layer_1-2" data-name="Layer 1"><polygon class="cls-1" points="38.69 0.7 17.95 22.37 41.3 50.63 31.96 50.63 12.83 27.25 7.96 32.16 7.96 50.63 0 50.63 0 0.7 7.96 0.7 7.96 24.22 29.39 0.7 38.69 0.7"/><path class="cls-1" d="M74.05,50.63V30.13a18.14,18.14,0,0,0-.5-4.47A9.41,9.41,0,0,0,72,22.26a7.13,7.13,0,0,0-2.74-2.13,9.64,9.64,0,0,0-4-.77,10,10,0,0,0-4.24.88,9.59,9.59,0,0,0-3.3,2.45,11.54,11.54,0,0,0-2.17,3.75,13.84,13.84,0,0,0-.77,4.73V50.63H47.28V20.09c0-.88,0-1.71-.07-2.49s-.09-1.86-.18-3.23H54.1c.09,1.39.16,2.48.2,3.27s.1,1.56.12,2.37.06,1.45.06,1.95h.14A13.82,13.82,0,0,1,68,13.62a15.69,15.69,0,0,1,6.35,1.12,11.1,11.1,0,0,1,4.17,3.1,11.92,11.92,0,0,1,2.3,4.61,22.46,22.46,0,0,1,.7,5.72V50.63Z"/><path class="cls-1" d="M128.06,32.43a23.21,23.21,0,0,1-1.21,7.66,15.84,15.84,0,0,1-3.61,6,16.43,16.43,0,0,1-6,3.88,23,23,0,0,1-8.35,1.4A22,22,0,0,1,100.82,50a15.86,15.86,0,0,1-9.47-9.86,22.75,22.75,0,0,1-1.24-7.67A23.57,23.57,0,0,1,91.28,25a16.32,16.32,0,0,1,3.52-6A15.91,15.91,0,0,1,100.74,15a23.08,23.08,0,0,1,8.43-1.4,23.63,23.63,0,0,1,8.62,1.4A15,15,0,0,1,127,24.9a25.6,25.6,0,0,1,1.07,7.54Zm-7.83,0a23.28,23.28,0,0,0-.7-6,11,11,0,0,0-2.1-4.19A8.1,8.1,0,0,0,114,19.82a13.1,13.1,0,0,0-4.68-.77q-5.49,0-8.42,3.28C99,24.47,98,27.86,98,32.43a20.4,20.4,0,0,0,.8,6.06,11.64,11.64,0,0,0,2.22,4.2,8.69,8.69,0,0,0,3.43,2.46,11.81,11.81,0,0,0,4.44.81,14.18,14.18,0,0,0,4.83-.79,8.88,8.88,0,0,0,3.56-2.44,11,11,0,0,0,2.22-4.21A21.62,21.62,0,0,0,120.23,32.43Z"/><path class="cls-2" d="M180,42.76A24.3,24.3,0,0,1,176.34,46a26.56,26.56,0,0,1-4.77,2.74,31.11,31.11,0,0,1-12.44,2.54,26.76,26.76,0,0,1-10.5-1.92A20.43,20.43,0,0,1,141.21,44a22.78,22.78,0,0,1-4.41-8.19,34.91,34.91,0,0,1-1.46-10.4,35.83,35.83,0,0,1,1.44-10.55,21.35,21.35,0,0,1,4.36-8,19.34,19.34,0,0,1,7.32-5.08A30.47,30.47,0,0,1,166.22.94a19.48,19.48,0,0,1,5.67,2.52A17.11,17.11,0,0,1,176,7.26a25,25,0,0,1,2.87,4.7l-7.18,2.57a17.47,17.47,0,0,0-1.87-3.14,12.38,12.38,0,0,0-2.69-2.62A13.16,13.16,0,0,0,163.48,7a17.82,17.82,0,0,0-11.66.71,12.61,12.61,0,0,0-4.77,3.86,16.3,16.3,0,0,0-2.78,6,31.51,31.51,0,0,0-.9,7.86,29.65,29.65,0,0,0,1,7.89,18.2,18.2,0,0,0,3,6.22,13.69,13.69,0,0,0,4.93,4A15.48,15.48,0,0,0,159.16,45a19.88,19.88,0,0,0,4.55-.49,21.61,21.61,0,0,0,3.78-1.21,17.94,17.94,0,0,0,3-1.67,14,14,0,0,0,2.21-1.85v-8.6H159.23V25.19H180Z"/><path class="cls-2" d="M196.1,33.87a19,19,0,0,0,.6,4.91,10.32,10.32,0,0,0,1.9,3.84,8.72,8.72,0,0,0,3.29,2.51,11.94,11.94,0,0,0,4.83.89,16.9,16.9,0,0,0,3.48-.34,11,11,0,0,0,3-1A9,9,0,0,0,215.46,43a6.85,6.85,0,0,0,1.43-2.35L223.54,42a14.16,14.16,0,0,1-1.9,3.28,13.78,13.78,0,0,1-3.28,3,18.68,18.68,0,0,1-4.89,2.24,23.52,23.52,0,0,1-6.78.88c-6,0-10.53-1.6-13.69-4.76s-4.72-7.92-4.72-14.26a22.27,22.27,0,0,1,1.57-8.88A15.27,15.27,0,0,1,194,17.68a15.46,15.46,0,0,1,5.9-3.11,25.34,25.34,0,0,1,6.87-.92,20.3,20.3,0,0,1,8,1.42,14.37,14.37,0,0,1,5.53,4,16.38,16.38,0,0,1,3.19,6.17,28.52,28.52,0,0,1,1,7.91v.75ZM217.15,29a16.48,16.48,0,0,0-.85-4.3,9,9,0,0,0-2-3.24,8,8,0,0,0-3.08-2,12.15,12.15,0,0,0-4.35-.71,14.6,14.6,0,0,0-3.83.51,8.62,8.62,0,0,0-5.81,4.84,12.44,12.44,0,0,0-1.11,4.92Z"/><path class="cls-2" d="M268.9,32.43a23.47,23.47,0,0,1-1.2,7.66,16.1,16.1,0,0,1-3.61,6,16.43,16.43,0,0,1-6,3.88,23,23,0,0,1-8.34,1.4A22,22,0,0,1,241.67,50a15.9,15.9,0,0,1-9.5-9.84A22.76,22.76,0,0,1,231,32.43a23.57,23.57,0,0,1,1.17-7.5,16.32,16.32,0,0,1,3.52-6A15.91,15.91,0,0,1,241.63,15a23,23,0,0,1,8.42-1.4,23.51,23.51,0,0,1,8.63,1.4,15.18,15.18,0,0,1,5.85,3.92,15.55,15.55,0,0,1,3.35,5.95,25.92,25.92,0,0,1,1.06,7.54Zm-7.82,0a22.86,22.86,0,0,0-.71-6,11,11,0,0,0-2.09-4.19,8.1,8.1,0,0,0-3.44-2.42,13.12,13.12,0,0,0-4.69-.77c-3.65,0-6.47,1.09-8.41,3.28s-2.92,5.57-2.92,10.14a20.4,20.4,0,0,0,.8,6.06,11.7,11.7,0,0,0,2.21,4.2,8.79,8.79,0,0,0,3.44,2.46,11.81,11.81,0,0,0,4.44.81,14.18,14.18,0,0,0,4.83-.79,8.94,8.94,0,0,0,3.56-2.44,10.93,10.93,0,0,0,2.21-4.21A21.53,21.53,0,0,0,261.08,32.43Z"/></g></g></svg>