<?xml version="1.0" encoding="utf-8"?>
<!-- Generator: Adobe Illustrator 22.1.0, SVG Export Plug-In . SVG Version: 6.00 Build 0)  -->
<svg version="1.1" id="Capa_1" xmlns="http://www.w3.org/2000/svg" xmlns:xlink="http://www.w3.org/1999/xlink" x="0px" y="0px"
	 viewBox="0 0 512 512" style="enable-background:new 0 0 512 512;" xml:space="preserve">
<style type="text/css">
	.st0{fill:#224D89;}
	.st1{fill:#285AA0;}
</style>
<g>
	<g id="banknote">
		<path class="st0" d="M502.6,169.4l-160-160c-7.9-7.9-19.4-11.1-30.3-8.4c-5.7,1.4-10.9,4.4-14.9,8.4c-3.6,3.6-6.4,8.1-7.9,13.2
			C282.2,46,269.6,66.5,251.1,85c-24.8,24.8-57,43.5-91.1,63.3c-36.2,21-73.6,42.8-104.3,73.4c-26.1,26.1-43.8,55.1-54.2,88.8
			c-3.5,11.4-0.4,23.7,7.9,32.1l160,160c7.9,7.9,19.4,11.1,30.3,8.4c5.7-1.4,10.9-4.4,14.9-8.4c3.6-3.6,6.4-8.1,7.9-13.2
			c7.3-23.5,19.8-43.9,38.4-62.5c24.8-24.8,57-43.5,91.1-63.3c36.2-21,73.6-42.8,104.3-73.4c26.1-26.1,43.8-55.1,54.2-88.8
			C514.1,190.1,511,177.7,502.6,169.4z M192,480C139,427,85,373,32,320C77.5,172.8,274.6,179.2,320,32c53,53,107,107,160,160
			C434.5,339.2,237.4,332.8,192,480z"/>
		<path class="st1" d="M313,238.4c-5.2-4.4-10.5-7.3-15.7-8.8c-5.2-1.5-10.5-2.1-15.8-1.7c-5.2,0.4-10.6,1.6-16,3.7
			c-5.4,2.1-10.8,4.4-16.2,7c-8.6-9.9-17.2-19.6-25.8-28.7c3.9-3.5,7.6-5.3,11.2-5.4c3.6-0.2,7.1,0.2,10.4,1.1
			c3.4,0.8,6.5,1.6,9.3,2.1c2.9,0.6,5.4-0.1,7.6-1.9c2.3-2,3.6-4.6,3.8-7.7c0.2-3.2-1-6.2-3.7-9.2c-3.4-3.9-7.4-6.2-12.3-7.1
			c-4.8-0.8-9.7-0.8-14.9,0.3c-5.1,1.2-9.9,3.1-14.4,5.7c-4.6,2.7-8.2,5.4-10.9,8.1c-1-1-2.1-2-3.1-2.9c-1.2-1.1-2.6-1.6-4.3-1.6
			c-1.7,0-3.2,0.8-4.4,2.1c-1.2,1.3-1.7,2.9-1.5,4.6c0.2,1.7,0.8,3,2,4c1,0.9,2.1,1.7,3.1,2.7c-4.1,4.9-7.5,10.4-10.1,16.2
			c-2.7,5.8-4.3,11.5-4.9,17.1c-0.6,5.6,0,10.7,1.7,15.5c1.7,4.8,4.9,8.8,9.5,12.7c7.5,6.3,16.4,8.9,26.7,8.3
			c10.3-0.6,21.3-3.7,33.2-10.1c9.4,10.9,18.9,21.7,28.4,31.8c-4,3.4-7.5,5.3-10.6,5.9c-3.1,0.7-5.8,0.6-8.3-0.2
			c-2.5-0.8-4.8-1.9-6.9-3.3c-2.1-1.5-4.2-2.7-6.3-3.7c-2.1-1-4.2-1.6-6.4-1.6c-2.2,0-4.5,1-7.1,3.2c-2.6,2.3-3.9,4.9-3.9,7.9
			c0,3,1.4,6,4.1,9.1c2.7,3.1,6.3,5.6,10.5,7.7c4.3,2,9.1,3.3,14.4,3.7c5.3,0.4,10.9-0.4,16.8-2.6c5.9-2.2,11.8-6.1,17.6-11.9
			c2.8,2.7,5.6,5.3,8.4,7.8c1.2,1,2.6,1.5,4.4,1.4c1.7-0.1,3.2-0.8,4.3-2.3c1.2-1.4,1.7-3,1.5-4.7c-0.2-1.7-0.8-3-2-3.9
			c-2.8-2.3-5.6-4.6-8.4-7.1c4.8-5.9,8.6-12.1,11.5-18.2c2.8-6.2,4.5-12.1,5.1-17.6c0.6-5.5-0.1-10.5-1.9-15.1
			C320.7,246.1,317.5,242.2,313,238.4z M223.5,249.2c-4.5,0.2-8.5-1.3-11.9-4.7c-1.5-1.4-2.5-3.1-3.1-5.2c-0.7-2-0.9-4.3-0.6-6.7
			c0.2-2.4,0.9-4.9,2.2-7.4c1.2-2.5,2.9-5.1,5.2-7.5c8.1,8.1,16.2,16.9,24.3,26.1C233.4,247.2,228.1,249,223.5,249.2z M299,281.3
			c-1.4,2.7-3.1,5-5,7.1c-9-9.1-17.9-19-26.9-29.2c2.3-1,4.7-2.1,7.3-3.2c2.6-1.1,5.2-1.8,7.8-2.3c2.7-0.4,5.3-0.3,7.9,0.3
			c2.6,0.7,5.1,2.1,7.3,4.3c2.3,2.3,3.7,4.6,4.3,7.1c0.6,2.6,0.7,5.2,0.2,7.8C301.4,275.9,300.5,278.6,299,281.3z"/>
		<path class="st1" d="M235.5,354.9L235.5,354.9c-10,7.7-19.8,15.8-28.8,24.8c-8.7,8.7-16.5,17.8-23.4,27.2l-10.9,14.9l0,0
			c-2,3.1-1.7,7.3,1.1,10c3.1,3.1,8.2,3.1,11.4,0c0.5-0.5,0.9-1,1.2-1.6l10.2-14c6.3-8.7,13.7-17.2,21.8-25.3
			c9-9,17.3-15.9,27.4-23.6l0,0c0.3-0.2,0.6-0.4,0.8-0.7c3.1-3.1,3.1-8.2,0-11.3C243.3,352.5,238.6,352.3,235.5,354.9z"/>
		<path class="st1" d="M294,123.4c-8.4,8.4-17.4,15.9-26.8,23.1c-0.7,0.4-1.3,0.8-1.9,1.4c-3.2,3.2-3.2,8.3,0,11.4
			c3.1,3.1,8,3.2,11.2,0.2l0.1,0c10-7.7,19.7-15.8,28.8-24.8c8.7-8.7,16.5-17.8,23.4-27.2l10.9-15l0,0c2.7-3.2,2.6-7.9-0.4-10.9
			c-3.2-3.2-8.3-3.2-11.4,0c-0.6,0.6-1,1.3-1.4,2l-10.6,14.6C309.4,106.8,302.1,115.3,294,123.4z"/>
	</g>
</g>
</svg>
