<?xml version="1.0"?>
<svg xmlns="http://www.w3.org/2000/svg" xmlns:xlink="http://www.w3.org/1999/xlink" version="1.1" id="Layer_1" x="0px" y="0px" viewBox="0 0 216.316 216.316" style="enable-background:new 0 0 216.316 216.316;" xml:space="preserve" width="512px" height="512px" class=""><g><g>
	<g>
		<path d="M207.449,8.626C201.89,3.064,194.404,0,186.369,0c-8.557,0-16.676,3.408-22.868,9.598l-30.984,33.115L25.956,10.816    L5.153,31.621c-2.205,2.202-3.417,5.134-3.417,8.251c0.002,3.115,1.215,6.045,3.419,8.247l0.664,0.666l79.943,43.999    l-28.174,30.563c-2.094,2.106-3.941,4.374-5.522,6.781l-34.871-9.025L3.29,135.01c-4.063,4.063-4.063,10.676,0,14.741l0.745,0.747    l39.745,20.16l2.11,2.11l20.163,39.745l0.743,0.743c1.971,1.973,4.589,3.06,7.378,3.06c2.784,0,5.4-1.085,7.368-3.05    l13.905-13.905l-9.201-35.554c2.299-1.537,4.466-3.315,6.481-5.317l30.702-28.306l43.882,79.729l0.452,0.824l0.666,0.664    c2.204,2.206,5.134,3.421,8.251,3.421c3.115,0,6.045-1.215,8.247-3.419l20.805-20.803l-32.11-107.283l32.852-30.738    c5.954-5.952,9.358-13.764,9.587-21.995C216.297,22.214,213.238,14.415,207.449,8.626z M197.281,43.073l-38.68,36.185    l32.198,107.57l-13.605,13.605l-50.312-91.417L83.67,148.851l-0.194,0.187c-2.345,2.348-4.973,4.243-7.81,5.641l-4.828,2.379    l9.911,38.299l-5.685,5.685l-18.331-36.134l-5.09-5.09l-36.127-18.325l5.685-5.687l37.722,9.761l2.352-4.909    c1.399-2.917,3.337-5.626,5.764-8.055l39.888-43.263L16.118,39.361l13.605-13.605l106.852,31.983l36.348-38.858    c3.683-3.646,8.453-5.652,13.444-5.652c4.501,0,8.665,1.686,11.729,4.75c3.19,3.192,4.876,7.536,4.744,12.236    C202.706,35.054,200.676,39.674,197.281,43.073z" data-original="#000000" class="active-path" data-old_color="#3F464F" fill="#285AA0"/>
	</g>
</g></g> </svg>
