<svg xmlns="http://www.w3.org/2000/svg" viewBox="0 0 268.9 325.19"><defs><style>.cls-1{fill:#0074b8;}.cls-2{fill:#3d4545;}</style></defs><title>Asset 1</title><g id="Layer_2" data-name="Layer 2"><g id="Layer_1-2" data-name="Layer 1"><path class="cls-1" d="M171.93,104.13l.19,82.16a4.77,4.77,0,0,1-9.53,0l-.2-85.49-12.18,2.81v12.5a4.79,4.79,0,0,1-9.57,0V82.93L124.57,72.11l-20.1,9.81v128.6a4.79,4.79,0,0,1-9.57,0V113l-12.1-7L62.28,116.14v94a4.79,4.79,0,0,1-9.57,0V113.19a4.79,4.79,0,0,1,3.08-4.48L80.88,96.37a4.78,4.78,0,0,1,4.52.18L94.9,102V78.93a4.78,4.78,0,0,1,2.87-4.38l22.4-10.93V4.79a4.79,4.79,0,1,1,9.57,0V64.07L148.1,76.43a4.78,4.78,0,0,1,2.1,4h0V93.81l15.87-3.66a4.8,4.8,0,0,1,3.85.77h0l19.22,13.78a4.8,4.8,0,0,1,2,4.27l.05,18.33c8.1,1.8,15.77,4.88,21.65,9s9.87,9.26,11.23,15.42c3.82,17.3-3.4,32.93-16.37,46.18C192.3,213.66,168.62,226,146.22,233.6c-24.58,8.32-50.93,11.78-71.73,9.44-11.25-1.27-21-4.24-28.22-9.08C38.5,228.75,33.69,221.49,33,212c-.42-6.14,1-13.14,4.6-21a4.77,4.77,0,0,1,8.67,4c-2.9,6.35-4.05,11.8-3.74,16.43.43,6.23,3.71,11.08,9,14.64,5.87,3.94,14.18,6.41,24,7.5,19.48,2.19,44.31-1.1,67.61-9,21.2-7.18,43.48-18.75,57.74-33.3,10.8-11,16.88-23.76,13.86-37.44-.81-3.64-3.55-6.92-7.45-9.7a49.53,49.53,0,0,0-16.09-7l.12,41.67a4.77,4.77,0,0,1-9.53,0l-.2-67.71-9.67-6.93Zm-59.6,35.7a2.29,2.29,0,0,0-2.28,2.28v9.4a2.29,2.29,0,0,0,2.28,2.28h9.25a2.29,2.29,0,0,0,2.28-2.28v-9.4a2.29,2.29,0,0,0-2.28-2.28Zm0-19.73a2.28,2.28,0,0,0-2.28,2.27v9.4a2.29,2.29,0,0,0,2.28,2.28h9.25a2.29,2.29,0,0,0,2.28-2.28v-9.4a2.28,2.28,0,0,0-2.28-2.27Z"/><polygon class="cls-2" points="38.69 274.57 17.95 296.24 41.3 324.5 31.96 324.5 12.83 301.12 7.96 306.03 7.96 324.5 0 324.5 0 274.57 7.96 274.57 7.96 298.09 29.39 274.57 38.69 274.57"/><path class="cls-2" d="M74.05,324.5V304a18,18,0,0,0-.5-4.47,9.34,9.34,0,0,0-1.56-3.4A7.18,7.18,0,0,0,69.25,294a9.72,9.72,0,0,0-4-.77,10.06,10.06,0,0,0-4.24.88,9.69,9.69,0,0,0-3.3,2.45,11.47,11.47,0,0,0-2.17,3.75,14.05,14.05,0,0,0-.77,4.73V324.5H47.28V296.44c0-.77,0-1.6,0-2.48s0-1.71-.07-2.49-.09-1.86-.18-3.23h7.07c.09,1.39.16,2.48.2,3.27s.1,1.56.12,2.37.06,1.45.06,1.95h.14A13.82,13.82,0,0,1,68,287.49a15.83,15.83,0,0,1,6.35,1.12,11.13,11.13,0,0,1,4.17,3.1,12,12,0,0,1,2.3,4.61,22.36,22.36,0,0,1,.7,5.72V324.5Z"/><path class="cls-2" d="M128.06,306.3a23.31,23.31,0,0,1-1.21,7.66,15.87,15.87,0,0,1-3.61,6,16.31,16.31,0,0,1-6,3.88,22.89,22.89,0,0,1-8.35,1.4,21.91,21.91,0,0,1-8.07-1.38A15.85,15.85,0,0,1,91.35,314a22.6,22.6,0,0,1-1.24-7.67,23.44,23.44,0,0,1,1.17-7.5,16.39,16.39,0,0,1,3.52-6,16,16,0,0,1,5.94-3.93,23.19,23.19,0,0,1,8.43-1.4,23.73,23.73,0,0,1,8.62,1.4,15,15,0,0,1,9.2,9.87,25.82,25.82,0,0,1,1.07,7.54Zm-7.83,0a23.15,23.15,0,0,0-.7-6,11,11,0,0,0-2.1-4.19,8.21,8.21,0,0,0-3.44-2.42,13.31,13.31,0,0,0-4.68-.77q-5.49,0-8.42,3.28C99,298.34,98,301.73,98,306.3a20.51,20.51,0,0,0,.8,6.06,11.55,11.55,0,0,0,2.22,4.2,8.66,8.66,0,0,0,3.43,2.46,11.74,11.74,0,0,0,4.44.81,13.94,13.94,0,0,0,4.83-.79,8.77,8.77,0,0,0,3.56-2.44,11,11,0,0,0,2.22-4.21A21.77,21.77,0,0,0,120.23,306.3Z"/><path class="cls-1" d="M180,316.63a24,24,0,0,1-3.66,3.28,25.94,25.94,0,0,1-4.77,2.74,31,31,0,0,1-12.44,2.54,26.6,26.6,0,0,1-10.5-1.92,20.3,20.3,0,0,1-7.42-5.38,22.77,22.77,0,0,1-4.41-8.19,35,35,0,0,1-1.46-10.4,36,36,0,0,1,1.44-10.55,21.44,21.44,0,0,1,4.36-8,19.31,19.31,0,0,1,7.32-5.08,27,27,0,0,1,10.26-1.79,27.22,27.22,0,0,1,7.5.93,19.9,19.9,0,0,1,5.67,2.52,17.2,17.2,0,0,1,4.12,3.8,25.37,25.37,0,0,1,2.87,4.7l-7.18,2.57a17.94,17.94,0,0,0-1.87-3.14,12.4,12.4,0,0,0-2.69-2.62,13.31,13.31,0,0,0-3.66-1.81,17.83,17.83,0,0,0-11.66.71,12.68,12.68,0,0,0-4.77,3.86,16.29,16.29,0,0,0-2.78,6,31.85,31.85,0,0,0-.9,7.86,29.68,29.68,0,0,0,1,7.89,18.14,18.14,0,0,0,3,6.22,13.63,13.63,0,0,0,4.93,4,15.43,15.43,0,0,0,6.86,1.45,19.59,19.59,0,0,0,4.55-.49,21.22,21.22,0,0,0,3.78-1.21,17.59,17.59,0,0,0,3-1.67,13.39,13.39,0,0,0,2.21-1.85V305H159.23v-5.94H180Z"/><path class="cls-1" d="M196.1,307.74a18.87,18.87,0,0,0,.6,4.91,10.25,10.25,0,0,0,1.9,3.84,8.68,8.68,0,0,0,3.29,2.51,11.74,11.74,0,0,0,4.83.89,16.18,16.18,0,0,0,3.48-.34,10.79,10.79,0,0,0,3-1,8.83,8.83,0,0,0,2.26-1.72,6.87,6.87,0,0,0,1.43-2.35l6.65,1.34a14.13,14.13,0,0,1-1.9,3.28,13.49,13.49,0,0,1-3.28,3,18.43,18.43,0,0,1-4.89,2.24,23.19,23.19,0,0,1-6.78.88c-6,0-10.53-1.6-13.69-4.76s-4.72-7.92-4.72-14.26a22.27,22.27,0,0,1,1.57-8.88,15.27,15.27,0,0,1,4.14-5.77,15.57,15.57,0,0,1,5.9-3.11,25.36,25.36,0,0,1,6.87-.92,20.52,20.52,0,0,1,8,1.42,14.41,14.41,0,0,1,5.53,4,16.46,16.46,0,0,1,3.19,6.17,28.48,28.48,0,0,1,1,7.91v.75Zm21.05-4.84a16.39,16.39,0,0,0-.85-4.3,9.05,9.05,0,0,0-2-3.24,8.11,8.11,0,0,0-3.08-2,12.13,12.13,0,0,0-4.35-.71,14.55,14.55,0,0,0-3.83.51,8.66,8.66,0,0,0-5.81,4.84,12.49,12.49,0,0,0-1.11,4.92Z"/><path class="cls-1" d="M268.9,306.3a23.58,23.58,0,0,1-1.2,7.66,16,16,0,0,1-3.61,6,16.35,16.35,0,0,1-6,3.88,22.84,22.84,0,0,1-8.34,1.4,22,22,0,0,1-8.08-1.38,15.87,15.87,0,0,1-9.5-9.84A22.6,22.6,0,0,1,231,306.3a23.44,23.44,0,0,1,1.17-7.5,16.25,16.25,0,0,1,3.52-6,16,16,0,0,1,5.94-3.93,23.17,23.17,0,0,1,8.42-1.4,23.75,23.75,0,0,1,8.63,1.4,15.38,15.38,0,0,1,5.85,3.92,15.56,15.56,0,0,1,3.35,5.95,25.83,25.83,0,0,1,1.06,7.54Zm-7.82,0a22.7,22.7,0,0,0-.71-6,11,11,0,0,0-2.09-4.19,8.21,8.21,0,0,0-3.44-2.42,13.33,13.33,0,0,0-4.69-.77c-3.65,0-6.47,1.09-8.41,3.28s-2.92,5.57-2.92,10.14a20.51,20.51,0,0,0,.8,6.06,11.54,11.54,0,0,0,2.21,4.2,8.69,8.69,0,0,0,3.44,2.46,11.7,11.7,0,0,0,4.44.81,14,14,0,0,0,4.83-.79,8.84,8.84,0,0,0,3.56-2.44,10.88,10.88,0,0,0,2.21-4.21A21.38,21.38,0,0,0,261.08,306.3Z"/></g></g></svg>